<svg id="Capa_1" data-name="Capa 1" xmlns="http://www.w3.org/2000/svg" viewBox="0 0 751 351"><defs><style>.cls-1,.cls-2{fill:#fff;}.cls-1,.cls-2,.cls-3,.cls-4,.cls-6{stroke:#000;}.cls-1,.cls-3,.cls-4,.cls-6{stroke-miterlimit:10;}.cls-2{stroke-miterlimit:1;}.cls-2,.cls-4{stroke-dasharray:1 1;}.cls-3,.cls-4{fill:none;}.cls-5{font-size:12px;font-family:MyriadPro-Regular, Myriad Pro;}</style></defs><rect class="cls-1" x="0.5" y="0.5" width="750" height="350" rx="26.64"/><circle class="cls-2" cx="375.13" cy="176.03" r="100"/><line class="cls-3" x1="445.56" y1="105.31" x2="446.06" y2="105.31"/><circle class="cls-1" cx="474.82" cy="175.5" r="2.5"/><circle class="cls-1" cx="445.56" cy="105.31" r="2.5"/><circle class="cls-1" cx="375.5" cy="75.52" r="2.5"/><path class="cls-4" d="M390.26,52.48A125,125,0,0,1,500.08,176.56"/><polygon points="383.23 51.82 392.72 56.86 390.78 52.58 393.54 48.77 383.23 51.82"/><circle class="cls-1" cx="305.03" cy="105.31" r="2.5"/><circle class="cls-1" cx="375.25" cy="275.78" r="2.5"/><circle class="cls-1" cx="304.69" cy="247.23" r="2.5"/><circle class="cls-1" cx="446.08" cy="246.21" r="2.5"/><circle class="cls-1" cx="413.63" cy="83.12" r="2.5"/><circle class="cls-1" cx="339.12" cy="83.12" r="2.5"/><circle class="cls-1" cx="283.97" cy="137.41" r="2.5"/><circle class="cls-1" cx="467.48" cy="213.65" r="2.5"/><circle class="cls-1" cx="413.63" cy="267.88" r="2.5"/><circle class="cls-1" cx="336.62" cy="267.88" r="2.5"/><circle class="cls-1" cx="282.31" cy="214.85" r="2.5"/><text class="cls-5" transform="translate(458.61 180.2)">0</text><text class="cls-5" transform="translate(454.14 144.71)">1</text><text class="cls-5" transform="translate(434.56 117.43)">2</text><text class="cls-5" transform="translate(408.18 98.36)">3</text><text class="cls-5" transform="translate(372.1 90.36)">4</text><text class="cls-5" transform="translate(339.12 96.71)">5</text><text class="cls-5" transform="translate(310.48 114.19)">6</text><text class="cls-5" transform="translate(289.63 143.35)">7</text><text class="cls-5" transform="translate(282.31 179.44)">8</text><text class="cls-5" transform="translate(287.92 215.69)">9</text><text class="cls-5" transform="translate(310.48 243.71)">10</text><text class="cls-5" transform="translate(334.12 261.14)">11</text><text class="cls-5" transform="translate(369.29 270.38)">12</text><text class="cls-5" transform="translate(402.82 262.16)">13</text><text class="cls-5" transform="translate(431.58 241.22)">14</text><text class="cls-5" transform="translate(453.2 209.56)">15</text><circle class="cls-1" cx="467.32" cy="137.41" r="2.5"/><ellipse class="cls-6" cx="474.82" cy="167.94" rx="1.4" ry="1.36"/><ellipse class="cls-6" cx="474.03" cy="161.88" rx="1.4" ry="1.36"/><ellipse class="cls-6" cx="473.14" cy="156.48" rx="1.4" ry="1.36"/><ellipse class="cls-6" cx="472.01" cy="151.5" rx="1.4" ry="1.36"/><ellipse class="cls-6" cx="470.61" cy="146.69" rx="1.4" ry="1.36"/><ellipse class="cls-6" cx="469.43" cy="142.62" rx="1.4" ry="1.36"/><ellipse class="cls-6" cx="464.82" cy="131.54" rx="1.4" ry="1.36"/><ellipse class="cls-6" cx="462.28" cy="127.32" rx="1.4" ry="1.36"/><ellipse class="cls-6" cx="459.99" cy="123.09" rx="1.4" ry="1.36"/><ellipse class="cls-6" cx="457.18" cy="118.38" rx="1.4" ry="1.36"/><ellipse class="cls-6" cx="453.42" cy="113.89" rx="1.4" ry="1.36"/><ellipse class="cls-6" cx="450.15" cy="109.83" rx="1.4" ry="1.36"/><ellipse class="cls-6" cx="441.65" cy="101.01" rx="1.4" ry="1.36"/><ellipse class="cls-6" cx="437.33" cy="97.69" rx="1.4" ry="1.36"/><ellipse class="cls-6" cx="433.16" cy="94.63" rx="1.4" ry="1.36"/><ellipse class="cls-6" cx="428.65" cy="91.72" rx="1.4" ry="1.36"/><ellipse class="cls-6" cx="424.73" cy="89.01" rx="1.4" ry="1.36"/><ellipse class="cls-6" cx="419.73" cy="86.47" rx="1.4" ry="1.36"/><ellipse class="cls-6" cx="407.63" cy="81.09" rx="1.4" ry="1.36"/><ellipse class="cls-6" cx="402.82" cy="79.74" rx="1.4" ry="1.36"/><ellipse class="cls-6" cx="398.01" cy="78.38" rx="1.4" ry="1.36"/><ellipse class="cls-6" cx="392.9" cy="77.39" rx="1.4" ry="1.36"/><ellipse class="cls-6" cx="387.48" cy="76.66" rx="1.4" ry="1.36"/><ellipse class="cls-6" cx="382.05" cy="76.03" rx="1.4" ry="1.36"/><circle class="cls-1" cx="275.13" cy="176.56" r="2.5"/></svg>