<svg id="Capa_1" data-name="Capa 1" xmlns="http://www.w3.org/2000/svg" viewBox="0 0 751 351"><defs><style>.cls-1,.cls-2{fill:#fff;}.cls-1,.cls-3,.cls-4,.cls-5,.cls-6,.cls-8{stroke:#000;stroke-miterlimit:10;}.cls-3,.cls-4,.cls-5,.cls-6,.cls-8{fill:none;}.cls-4{stroke-dasharray:1 1;}.cls-5{stroke-dasharray:1 1;}.cls-6{stroke-dasharray:1;}.cls-7{font-size:12px;font-family:MyriadPro-Regular, Myriad Pro;}.cls-8{stroke-dasharray:1 1;}</style></defs><rect class="cls-1" x="0.5" y="0.5" width="750" height="350" rx="26.64"/><circle class="cls-2" cx="162.44" cy="183.84" r="99.5"/><path d="M162.44,84.84a99,99,0,1,1-99,99,99.12,99.12,0,0,1,99-99m0-1a100,100,0,1,0,100,100,100,100,0,0,0-100-100Z"/><polyline class="cls-1" points="298.56 183.82 336.14 183.82 398.56 183.82"/><line class="cls-1" x1="398.56" y1="183.82" x2="498.56" y2="183.82"/><line class="cls-1" x1="498.56" y1="183.82" x2="598.56" y2="183.82"/><path class="cls-3" d="M598.56,183.82h100"/><line class="cls-3" x1="598.56" y1="183.82" x2="698.56" y2="183.82"/><path class="cls-3" d="M698.56,183.82c-28.8,86.4-75.27,100-100,100-21.07,0-63.33-10.78-100-100.43-40.72-99.57-79.53-99.57-100-99.57-16.29,0-68.38,4.62-100,100"/><path class="cls-3" d="M262.18,183.82h-100v-100"/><line class="cls-3" x1="162.18" y1="183.82" x2="232.89" y2="113.11"/><line class="cls-3" x1="232.37" y1="113.63" x2="232.87" y2="113.63"/><line class="cls-4" x1="233.87" y1="113.63" x2="335.14" y2="113.63"/><polyline class="cls-3" points="335.64 113.63 336.14 113.63 336.14 114.13"/><line class="cls-5" x1="336.14" y1="115.13" x2="336.14" y2="182.82"/><line class="cls-3" x1="336.14" y1="183.32" x2="336.14" y2="183.82"/><line class="cls-6" x1="162.31" y1="84.35" x2="402.06" y2="83.84"/><line class="cls-6" x1="261.63" y1="183.82" x2="299.35" y2="183.82"/><line class="cls-6" x1="400.9" y1="83.82" x2="400.9" y2="183.82"/><circle class="cls-1" cx="261.63" cy="183.82" r="2.5"/><circle class="cls-1" cx="299.35" cy="183.82" r="2.5"/><circle class="cls-1" cx="232.37" cy="113.63" r="2.5"/><circle class="cls-1" cx="336.14" cy="113.63" r="2.5"/><circle class="cls-1" cx="162.31" cy="83.84" r="2.5"/><circle class="cls-1" cx="400.9" cy="83.82" r="2.5"/><text class="cls-7" transform="translate(264.13 179.41)">0º</text><text class="cls-7" transform="translate(300.07 194.22)">0º</text><text class="cls-7" transform="translate(328.88 194.22)">30º</text><text class="cls-7" transform="translate(394.48 194.22)">90º</text><text class="cls-7" transform="translate(208.73 148.72)">30º</text><text class="cls-7" transform="translate(164.81 103.11)">90º</text><path class="cls-8" d="M37.7,178.17A125,125,0,0,1,162.44,61.32"/><path d="M37.85,176.38,34.34,174l-.08.12,2.08,6c.37,2.06.73,4.13,1.1,6.19.53-2,1.07-4,1.6-6.08l2.58-5.77-.06-.13Z"/></svg>