<svg id="Capa_1" data-name="Capa 1" xmlns="http://www.w3.org/2000/svg" viewBox="0 0 750.9 350.9"><defs><style>.cls-1,.cls-2{fill:#fff;}.cls-1,.cls-13,.cls-14,.cls-16,.cls-2,.cls-3,.cls-4{stroke:#000;stroke-miterlimit:10;}.cls-14,.cls-16,.cls-2,.cls-4{stroke-width:2px;}.cls-13,.cls-14,.cls-16,.cls-3,.cls-4{fill:none;}.cls-10,.cls-11,.cls-12,.cls-13,.cls-15,.cls-17,.cls-5,.cls-6,.cls-7,.cls-8,.cls-9{isolation:isolate;}.cls-5,.cls-6{font-size:21.42px;}.cls-10,.cls-11,.cls-12,.cls-13,.cls-15,.cls-17,.cls-5,.cls-6,.cls-7,.cls-8{font-family:ArialMT, Arial;}.cls-6{letter-spacing:-0.11em;}.cls-7{font-size:10.34px;}.cls-8{font-size:10.35px;}.cls-10,.cls-11{font-size:16.32px;}.cls-10{letter-spacing:-0.04em;}.cls-12,.cls-13{font-size:22.67px;}.cls-13{stroke-width:0.25px;}.cls-14{stroke-dasharray:12;}.cls-15{font-size:18.4px;}.cls-16{stroke-dasharray:3 3;}.cls-17{font-size:13.64px;letter-spacing:-0.04em;}.cls-18{font-size:12px;font-family:MyriadPro-Regular, Myriad Pro;}.cls-19{letter-spacing:-0.01em;}.cls-20{letter-spacing:-0.01em;}.cls-21{letter-spacing:-0.01em;}</style></defs><path class="cls-1" d="M27.1.5H723.8a26.58,26.58,0,0,1,26.6,26.58V323.8a26.58,26.58,0,0,1-26.58,26.6H27.1A26.58,26.58,0,0,1,.5,323.82V27.1A26.58,26.58,0,0,1,27.08.5Z"/><rect class="cls-2" x="409.87" y="86.3" width="100.73" height="86.2"/><path class="cls-3" d="M702.1,97.9c-3.2,11.6-8.3,13.4-11,13.4-2.3,0-7-1.4-11-13.4-4.5-13.3-8.8-13.3-11-13.3-1.8,0-7.5.6-11,13.4"/><polyline class="cls-4" points="515.2 132.71 541.5 132.71 555.5 132.71"/><polygon points="564.6 132.71 547.4 139.71 551.5 132.71 547.4 125.7 564.6 132.71"/><rect class="cls-2" x="570.2" y="89.6" width="63.7" height="86.2"/><polyline class="cls-4" points="638.2 132.71 675.2 132.71 699.9 132.71"/><polygon points="712.2 132.71 694.9 139.71 699 132.71 694.9 125.7 712.2 132.71"/><text class="cls-5" transform="translate(648.88 157.55) scale(0.94 1)">S</text><text class="cls-5" transform="translate(658.9 157.55) scale(0.94 1)">alida</text><text class="cls-5" transform="translate(583.41 138.03) scale(0.94 1)">D</text><text class="cls-6" transform="translate(596.59 138.03) scale(0.94 1)">A</text><text class="cls-5" transform="translate(608.65 138.03) scale(0.94 1)">C</text><text class="cls-5" transform="translate(38.75 328.1) scale(0.94 1)">Clock</text><text class="cls-7" transform="translate(527.42 122.71) scale(0.95 1)">Sample</text><rect class="cls-2" x="261.3" y="87" width="77" height="98.3"/><circle class="cls-2" cx="188.6" cy="107.2" r="21.6"/><text class="cls-8" transform="translate(266.06 138.75) scale(0.9 1)">Registro de fase</text><g class="cls-9"><text class="cls-10" transform="translate(421.78 111.3) scale(0.9 1)">W</text><text class="cls-11" transform="translate(435.09 111.3) scale(0.9 1)">avetable</text></g><line class="cls-4" x1="213" y1="109.3" x2="244.4" y2="109.3"/><polygon points="258.6 109.31 238.7 117.41 243.4 109.31 238.7 101.2 258.6 109.31"/><line class="cls-4" x1="338.3" y1="125.7" x2="387.5" y2="125.7"/><polygon points="405.79 125.7 381.8 133.81 387.49 125.7 381.8 117.5 405.79 125.7"/><path class="cls-2" d="M98.6,129.5H55.9a17.2,17.2,0,0,1-17.2-17.2v-6A17.2,17.2,0,0,1,55.9,89.1H98.5a17.2,17.2,0,0,1,17.2,17.2v6a17.11,17.11,0,0,1-17,17.2Z"/><line class="cls-4" x1="118.6" y1="109.3" x2="150" y2="109.3"/><polygon points="164.1 109.31 144.2 117.41 148.9 109.31 144.2 101.2 164.1 109.31"/><text class="cls-8" transform="translate(53.15 107.24)">Control de</text><text class="cls-8" transform="translate(53.15 119.64)">frecuencia</text><text class="cls-12" transform="translate(181.1 114.09) scale(1.15 1)">+</text><text class="cls-13" transform="translate(181.1 114.09) scale(1.15 1)">+</text><path class="cls-14" d="M347.8,282.8H156.9a23,23,0,0,1-23-23V69a23,23,0,0,1,23-23H347.8a23,23,0,0,1,23,23V259.9a22.92,22.92,0,0,1-22.94,22.9Z"/><polyline class="cls-4" points="97.2 322.5 606.5 322.5 606.5 210.41"/><polygon points="606.5 196.31 614.7 216.21 606.5 211.5 598.4 216.21 606.5 196.31"/><line class="cls-4" x1="249.2" y1="322.51" x2="249.2" y2="303.6"/><polygon points="249.2 289.4 257.3 309.31 249.2 304.61 241.1 309.31 249.2 289.4"/><polyline class="cls-4" points="351.9 125.7 351.9 254.91 188.6 254.91 188.6 146.81"/><polygon points="188.6 132.71 196.7 152.6 188.6 147.81 180.5 152.6 188.6 132.71"/><text class="cls-15" transform="translate(185.7 66.74) scale(0.9 1)">Acumulador de fase</text><path class="cls-16" d="M484.28,290.9H162.62c-21.4,0-38.76-12.1-38.76-27V39.74c0-14.92,17.36-27,38.76-27H484.28c21.4,0,38.76,12.1,38.76,27V264c0,14.92-17.36,26.9-38.76,26.9Z"/><text class="cls-15" transform="translate(299.8 32.18) scale(0.9 1)">NCO</text><g class="cls-9"><text class="cls-17" transform="translate(378 110.77) scale(0.97 1)">Fase</text></g><text class="cls-18" transform="translate(430.81 139.71)"><tspan class="cls-19">C</tspan><tspan x="6.83" y="0">o</tspan><tspan class="cls-20" x="13.42" y="0">n</tspan><tspan class="cls-21" x="19.92" y="0">v</tspan><tspan x="25.57" y="0">ersión </tspan><tspan x="-13.12" y="14.4">de fase/amplitud</tspan></text></svg>