<?xml version="1.0" encoding="utf-8"?>
<!-- Generator: Adobe Illustrator 26.3.1, SVG Export Plug-In . SVG Version: 6.00 Build 0)  -->
<svg version="1.1" id="Capa_1" xmlns="http://www.w3.org/2000/svg" xmlns:xlink="http://www.w3.org/1999/xlink" x="0px" y="0px"
	 viewBox="0 0 751 351" style="enable-background:new 0 0 751 351;" xml:space="preserve">
<style type="text/css">
	.st0{fill:#FFFFFF;stroke:#000000;stroke-miterlimit:10;}
	.st1{fill:#FFFFFF;stroke:#000000;stroke-width:2;stroke-miterlimit:10;}
	.st2{fill:none;stroke:#000000;stroke-miterlimit:10;}
	.st3{fill:none;stroke:#000000;stroke-width:2;stroke-miterlimit:10;}
	.st4{font-family:'ArialMT';}
	.st5{font-size:21.4224px;}
	.st6{font-size:10.3403px;}
	.st7{font-family:'MyriadPro-Regular';}
	.st8{font-size:10.349px;}
	.st9{font-size:16.3151px;}
	.st10{fill:#FFFFFF;}
	.st11{stroke:#000000;stroke-width:0.25;stroke-miterlimit:10;}
	.st12{font-size:22.6709px;}
	.st13{fill:none;stroke:#000000;stroke-width:2;stroke-miterlimit:10;stroke-dasharray:12;}
	.st14{font-size:18.4005px;}
</style>
<path class="st0" d="M27.1,0.5h696.7c14.7,0,26.6,11.9,26.6,26.6v296.7c0,14.7-11.9,26.6-26.6,26.6H27.1
	c-14.7,0-26.6-11.9-26.6-26.6V27.1C0.5,12.4,12.4,0.5,27.1,0.5z"/>
<rect x="403.2" y="74.5" class="st1" width="104.9" height="86.2"/>
<path class="st2" d="M699.6,86.1c-3.2,11.6-8.3,13.4-11,13.4c-2.3,0-7-1.4-11-13.4c-4.5-13.3-8.8-13.3-11-13.3
	c-1.8,0-7.5,0.6-11,13.4"/>
<polyline class="st3" points="512.7,120.9 539,120.9 553,120.9 "/>
<polygon points="562.1,120.9 544.9,127.9 549,120.9 544.9,113.9 "/>
<rect x="567.7" y="77.8" class="st1" width="63.7" height="86.2"/>
<polyline class="st3" points="635.7,120.9 672.7,120.9 697.4,120.9 "/>
<polygon points="709.7,120.9 692.4,127.9 696.5,120.9 692.4,113.9 "/>
<text transform="matrix(0.9436 0 0 1 646.3777 145.7485)" class="st4 st5">S</text>
<text transform="matrix(0.9436 0 0 1 656.4031 145.7485)" class="st4 st5">alida</text>
<text transform="matrix(0.9436 0 0 1 580.9129 126.2236)" class="st4 st5">D</text>
<text transform="matrix(0.9436 0 0 1 594.0867 126.2236)" class="st4 st5">A</text>
<text transform="matrix(0.9436 0 0 1 606.1551 126.2236)" class="st4 st5">C</text>
<text transform="matrix(0.9436 0 0 1 36.2474 316.29)" class="st4 st5">Clock</text>
<text transform="matrix(0.9536 0 0 1 520.5389 104.9502)" class="st4 st6">S</text>
<text transform="matrix(0.9536 0 0 1 525.4324 104.9502)" class="st4 st6">ample</text>
<rect x="258.8" y="75.2" class="st1" width="77" height="98.3"/>
<ellipse class="st1" cx="186.1" cy="95.4" rx="21.6" ry="21.6"/>
<text transform="matrix(1.0038 0 0 1 261.5179 126.9409)" class="st7 st8">Registro de fase</text>
<text transform="matrix(0.9017 0 0 1 419.2801 122.1382)" class="st7 st9">Wavetable</text>
<g>
	<line class="st10" x1="210.5" y1="97.5" x2="256.1" y2="97.5"/>
	<g>
		<line class="st3" x1="210.5" y1="97.5" x2="241.9" y2="97.5"/>
		<g>
			<polygon points="256.1,97.5 236.2,105.6 240.9,97.5 236.2,89.4 			"/>
		</g>
	</g>
</g>
<g>
	<line class="st10" x1="335.8" y1="113.9" x2="399.1" y2="113.9"/>
	<g>
		<line class="st3" x1="335.8" y1="113.9" x2="385" y2="113.9"/>
		<g>
			<polygon points="399.1,113.9 379.3,122 384,113.9 379.3,105.7 			"/>
		</g>
	</g>
</g>
<path class="st1" d="M96.1,117.7H53.4c-9.5,0-17.2-7.7-17.2-17.2v-6c0-9.5,7.7-17.2,17.2-17.2h42.6c9.5,0,17.2,7.7,17.2,17.2v6
	C113.2,110,105.6,117.7,96.1,117.7z"/>
<g>
	<line class="st10" x1="116.1" y1="97.5" x2="161.6" y2="97.5"/>
	<g>
		<line class="st3" x1="116.1" y1="97.5" x2="147.5" y2="97.5"/>
		<g>
			<polygon points="161.6,97.5 141.7,105.6 146.4,97.5 141.7,89.4 			"/>
		</g>
	</g>
</g>
<text transform="matrix(1.0038 0 0 1 50.6513 95.4381)"><tspan x="0" y="0" class="st7 st8">Control de </tspan><tspan x="0" y="12.4" class="st7 st8">frecuencia</tspan></text>
<text transform="matrix(1.1455 0 0 1 178.6021 102.2805)" class="st11 st7 st12">+</text>
<path class="st13" d="M345.3,271H154.4c-12.7,0-23-10.3-23-23V57.2c0-12.7,10.3-23,23-23h190.9c12.7,0,23,10.3,23,23v190.9
	C368.3,260.8,358,271,345.3,271z"/>
<g>
	<g>
		<polyline class="st3" points="94.7,310.7 604,310.7 604,198.6 		"/>
		<g>
			<polygon points="604,184.5 612.2,204.4 604,199.7 595.9,204.4 			"/>
		</g>
	</g>
</g>
<path class="st3" d="M744,101.8"/>
<g>
	<g>
		<line class="st3" x1="246.7" y1="310.7" x2="246.7" y2="291.8"/>
		<g>
			<polygon points="246.7,277.6 254.8,297.5 246.7,292.8 238.6,297.5 			"/>
		</g>
	</g>
</g>
<g>
	<g>
		<polyline class="st3" points="349.4,113.9 349.4,243.1 186.1,243.1 186.1,135 		"/>
		<g>
			<polygon points="186.1,120.9 194.2,140.8 186.1,136 178,140.8 			"/>
		</g>
	</g>
</g>
<text transform="matrix(0.8984 0 0 1 183.198 54.9327)" class="st7 st14">Acumulador de fase</text>
</svg>
