<svg id="Capa_1" data-name="Capa 1" xmlns="http://www.w3.org/2000/svg" viewBox="0 0 770.15 351"><defs><style>.cls-1,.cls-7{fill:#fff;}.cls-1,.cls-2,.cls-8{stroke:#000;stroke-miterlimit:10;}.cls-2,.cls-8{fill:none;}.cls-3,.cls-5{font-size:12px;font-family:MyriadPro-Regular, Myriad Pro;}.cls-4{letter-spacing:0em;}.cls-5{letter-spacing:-0.04em;}.cls-6{letter-spacing:0em;}.cls-8{stroke-width:0.25px;}.cls-9{letter-spacing:0em;}</style></defs><rect class="cls-1" x="0.5" y="0.5" width="750" height="350" rx="26.64"/><line class="cls-2" x1="559.29" y1="216.48" x2="559.29" y2="100.43"/><polyline class="cls-2" points="488.55 275.35 565.1 216.1 706.33 216.48"/><text class="cls-3" transform="translate(439.43 272.94)">Onda</text><text class="cls-3" transform="translate(488.55 110.76)"><tspan class="cls-4">A</tspan><tspan x="7.31" y="0">mplitud</tspan></text><text class="cls-5" transform="translate(703.51 212.79)">F<tspan class="cls-6" x="5.3" y="0">ase</tspan></text><path class="cls-7" d="M566.91,217.84c2-10.48,6.25-20.77,13.55-28.77s17.94-13.51,29-13.46a20.76,20.76,0,0,1,10.89,2.7c4.77,3,7.26,8.29,9.5,13.31l6.34,14.18c.67,1.51,1.44,3.12,2.91,3.94a7,7,0,0,0,3.93.59c5.21-.39,10-2.62,15-4.29s10.41-2.82,15.3-1c6.93,2.52,10.55,10,17,13.49"/><path d="M567.27,217.94c2.17-11.08,6.75-22,14.83-30,7.74-7.72,18.82-12.82,29.9-11.8a18.41,18.41,0,0,1,8.49,2.75,18.92,18.92,0,0,1,5.54,6c3,4.86,5,10.37,7.36,15.57,1.16,2.6,2.1,5.58,3.73,7.92,1.32,1.89,3.27,2.46,5.51,2.36,6-.28,11.49-3.17,17.17-4.88a24.56,24.56,0,0,1,10.44-1.22,16.08,16.08,0,0,1,8.13,3.86c4,3.37,7.1,7.78,11.77,10.32.42.23.8-.42.38-.65-4.45-2.42-7.46-6.58-11.22-9.85a19.28,19.28,0,0,0-5.58-3.56,17.78,17.78,0,0,0-8.74-.83c-6.12.8-11.6,3.8-17.54,5.29-2.88.72-7.21,1.8-9.41-.87a15,15,0,0,1-1.82-3.39l-2.07-4.66c-2.43-5.43-4.53-11.26-7.77-16.28a18,18,0,0,0-12.59-8.43c-10.58-1.7-21.55,2.6-29.56,9.36-9.78,8.26-15.26,20.45-17.68,32.8-.09.47.64.67.73.2Z"/><path class="cls-7" d="M552.21,231.32c1.95-10,6-19.87,13.08-27.53s17.29-12.93,28-12.88a20.12,20.12,0,0,1,10.51,2.58c4.6,2.84,7,7.93,9.17,12.74L619,219.8c.65,1.45,1.39,3,2.81,3.77a6.79,6.79,0,0,0,3.79.56c5-.37,9.68-2.5,14.43-4.11s10-2.69,14.75-1c6.69,2.4,10.19,9.61,16.44,12.91"/><path d="M552.57,231.42c2.1-10.64,6.54-21.08,14.36-28.79,7.46-7.35,18.05-12.16,28.66-11.24A18,18,0,0,1,603.9,194a18.23,18.23,0,0,1,5.24,5.61c2.92,4.64,4.89,10,7.13,14.93l1.83,4.07a22.24,22.24,0,0,0,1.83,3.65c1.34,1.87,3.3,2.38,5.51,2.24,5.76-.35,11-3.05,16.43-4.68a24.55,24.55,0,0,1,9.55-1.2,15.28,15.28,0,0,1,8.13,3.61c3.94,3.24,7,7.54,11.52,10,.43.23.81-.41.38-.64-4.34-2.36-7.26-6.41-11-9.56a16.94,16.94,0,0,0-13.91-4c-5.77.8-11,3.57-16.56,5-2.72.69-6.85,1.75-9-.62a13.35,13.35,0,0,1-2-3.68l-2-4.53c-2.34-5.19-4.36-10.81-7.55-15.56a17.22,17.22,0,0,0-11.79-7.73c-10.29-1.72-21,2.47-28.83,9.06-9.32,7.89-14.58,19.48-16.9,31.27-.1.47.63.67.72.2Z"/><path class="cls-7" d="M537.57,240.19c2-9.76,6.22-19.34,13.49-26.79s17.84-12.59,28.85-12.54a21.76,21.76,0,0,1,10.84,2.51c4.74,2.77,7.22,7.72,9.45,12.4L606.5,229a7.35,7.35,0,0,0,2.9,3.67,7.48,7.48,0,0,0,3.91.55c5.18-.37,10-2.44,14.88-4s10.36-2.63,15.22-1c6.9,2.35,10.51,9.36,17,12.57"/><path d="M537.93,240.29c2.22-10.61,7-20.86,15.09-28.27,7.85-7.18,18.77-11.63,29.51-10.67a19,19,0,0,1,8.53,2.65,18.66,18.66,0,0,1,5.45,5.67c3,4.63,5.09,9.91,7.46,14.87,1.12,2.35,2,5.21,3.75,7.21,1.54,1.81,3.82,2,6,1.78,5.8-.51,11.09-3.09,16.65-4.61a25.66,25.66,0,0,1,10-1,16.31,16.31,0,0,1,7.78,3.35c4.14,3.15,7.31,7.45,12,9.85.43.22.81-.42.38-.64-4.36-2.23-7.4-6.1-11.12-9.15a18.12,18.12,0,0,0-14.07-4.14c-5.91.68-11.29,3.33-17,4.78-2.7.69-6.9,1.84-9.35,0a8.19,8.19,0,0,1-2.19-3.15q-1.11-2.31-2.2-4.62c-2.44-5.12-4.58-10.64-7.78-15.35a18,18,0,0,0-12.47-8c-10.4-1.64-21.33,2.22-29.47,8.62-9.59,7.54-15.23,18.87-17.69,30.64-.1.47.62.67.72.2Z"/><path class="cls-7" d="M520.88,248.93A35.42,35.42,0,0,1,535.11,230c7.68-5.27,18.84-8.89,30.45-8.86A32.54,32.54,0,0,1,577,222.91c5,2,7.63,5.45,10,8.76l6.64,9.33a6.18,6.18,0,0,0,3.07,2.6,11.38,11.38,0,0,0,4.12.39c5.47-.26,10.54-1.73,15.71-2.83s10.94-1.86,16.07-.69c7.28,1.66,11.08,6.62,17.89,8.88"/><path d="M521.24,249c6.16-19.69,28.71-29,48-27.38,5.27.43,10.24,2,14,5.9a44.18,44.18,0,0,1,4,5.12l5.2,7.3c1.15,1.61,2.2,3.31,4.16,4,2.28.79,5,.42,7.32.13,5.34-.66,10.49-2.27,15.79-3.16,6-1,12.26-1.07,17.86,1.76,4.38,2.21,8.13,5.42,12.83,7,.45.15.65-.57.19-.73-4.5-1.54-8.13-4.6-12.31-6.78a25.85,25.85,0,0,0-14.38-2.57c-5.48.45-10.75,2-16.13,3.07a35.79,35.79,0,0,1-8.87.9,5.79,5.79,0,0,1-3.78-1.4,21.85,21.85,0,0,1-2.61-3.43q-2.6-3.65-5.2-7.3a37.46,37.46,0,0,0-3.8-4.71,20.72,20.72,0,0,0-12.44-5.68,55.08,55.08,0,0,0-30.41,5.26c-9.43,4.58-17,12.37-20.15,22.48-.14.46.58.66.73.2Z"/><path class="cls-7" d="M505.2,262.57a35.84,35.84,0,0,1,14.06-19.2c7.58-5.35,18.61-9,30.08-9a31.32,31.32,0,0,1,11.3,1.8c5,2,7.54,5.53,9.86,8.89l6.57,9.46a6.18,6.18,0,0,0,3,2.64,11.12,11.12,0,0,0,4.07.39c5.4-.27,10.42-1.75,15.52-2.87s10.8-1.88,15.87-.7c7.19,1.68,11,6.71,17.68,9"/><path d="M505.6,262.68c6-19.76,28.37-29.56,47.84-27.69,5.14.49,9.88,2.2,13.43,6.06a49.84,49.84,0,0,1,4.09,5.41l4.79,6.9c1.07,1.55,2.06,3.28,3.87,4.06,2.24,1,5,.6,7.38.31,5.24-.63,10.29-2.24,15.47-3.17,6.1-1.1,12.36-1.2,18,1.72,4.33,2.24,8,5.49,12.68,7.13.51.18.73-.64.22-.81-4.46-1.58-8-4.67-12.15-6.88A25.15,25.15,0,0,0,607,253.11c-5.57.47-10.92,2.15-16.38,3.21a32.44,32.44,0,0,1-8.5.81c-3.2-.26-4.48-2.58-6.14-5-2.78-4-5.33-8.41-8.71-12a20.25,20.25,0,0,0-12.38-5.89,53.35,53.35,0,0,0-30,5.29c-9.47,4.7-16.9,12.67-20,22.86a.42.42,0,0,0,.81.22Z"/><line class="cls-8" x1="339.27" y1="175.61" x2="339.78" y2="175.39"/><line class="cls-2" x1="369.9" y1="175.39" x2="413.87" y2="175.39"/><path d="M419.9,175.39a29.91,29.91,0,0,0-8.54,4.76l1.72-4.76-1.72-4.75A30.12,30.12,0,0,0,419.9,175.39Z"/><rect class="cls-2" x="89.52" y="50.61" width="250" height="250"/><line class="cls-2" x1="339.52" y1="258.94" x2="89.52" y2="258.94"/><line class="cls-2" x1="339.52" y1="217.28" x2="89.52" y2="217.28"/><line class="cls-2" x1="339.52" y1="175.61" x2="89.52" y2="175.61"/><line class="cls-2" x1="339.52" y1="133.94" x2="89.52" y2="133.94"/><line class="cls-2" x1="339.52" y1="92.28" x2="89.52" y2="92.28"/><line class="cls-2" x1="131.19" y1="50.61" x2="131.19" y2="300.61"/><line class="cls-2" x1="172.85" y1="50.61" x2="172.85" y2="300.61"/><line class="cls-2" x1="214.52" y1="50.61" x2="214.52" y2="300.61"/><line class="cls-2" x1="256.19" y1="50.61" x2="256.19" y2="300.61"/><line class="cls-2" x1="297.85" y1="50.61" x2="297.85" y2="300.61"/><text class="cls-3" transform="translate(188.52 40.46)"><tspan class="cls-9">A</tspan><tspan x="7.31" y="0">mplitud</tspan></text><text class="cls-3" transform="translate(80.4 185.83) rotate(-90)">Onda</text></svg>