<svg id="Capa_1" data-name="Capa 1" xmlns="http://www.w3.org/2000/svg" viewBox="0 0 751 351"><defs><style>.cls-1{fill:#fff;}.cls-1,.cls-10,.cls-5{stroke:#000;stroke-miterlimit:10;}.cls-2,.cls-6{font-size:24.84px;}.cls-14,.cls-2,.cls-6{font-family:MyriadPro-Regular, Myriad Pro;}.cls-3{letter-spacing:-0.01em;}.cls-4{letter-spacing:0em;}.cls-10,.cls-5{fill:none;}.cls-6{letter-spacing:-0.03em;}.cls-7{letter-spacing:-0.01em;}.cls-8{letter-spacing:-0.01em;}.cls-9{letter-spacing:0em;}.cls-10{stroke-width:2px;}.cls-11{letter-spacing:0em;}.cls-12{letter-spacing:-0.01em;}.cls-13{letter-spacing:-0.02em;}.cls-14{font-size:11.99px;}.cls-15{letter-spacing:-0.01em;}.cls-16{letter-spacing:0em;}.cls-17{letter-spacing:-0.01em;}.cls-18{letter-spacing:0em;}.cls-19{letter-spacing:-0.01em;}.cls-20{letter-spacing:0em;}</style></defs><rect class="cls-1" x="0.5" y="0.5" width="750" height="350" rx="26.64"/><rect class="cls-1" x="153.29" y="93.46" width="117.15" height="99.91"/><text class="cls-2" transform="translate(167.91 152.86) scale(0.94 1)"><tspan class="cls-3">C</tspan><tspan x="14.13" y="0">o</tspan><tspan class="cls-4" x="27.77" y="0">n</tspan><tspan x="41.46" y="0">tador</tspan></text><rect class="cls-1" x="363.34" y="93.46" width="126.22" height="99.91"/><path class="cls-5" d="M717.69,106.3c-3.68,13.41-9.6,15.52-12.75,15.52-2.69,0-8.07-1.67-12.75-15.58C687,90.78,682.06,90.78,679.45,90.78c-2.08,0-8.72.72-12.75,15.52"/><text class="cls-6" transform="translate(375.5 152.86) scale(0.94 1)">W<tspan class="cls-7" x="20.19" y="0">a</tspan><tspan class="cls-8" x="31.97" y="0">v</tspan><tspan class="cls-9" x="43.67" y="0">etable</tspan></text><polyline class="cls-10" points="498.29 146.66 528.58 146.66 544.76 146.66"/><polygon points="558.88 146.66 538.98 154.79 543.71 146.66 538.98 138.53 558.88 146.66"/><rect class="cls-1" x="565.34" y="96.7" width="73.53" height="99.91"/><polyline class="cls-10" points="643.9 146.66 686.59 146.66 715.16 146.66"/><polygon points="729.28 146.66 709.38 154.79 714.1 146.66 709.38 138.53 729.28 146.66"/><text class="cls-2" transform="translate(656.18 175.5) scale(0.94 1)"><tspan class="cls-11">S</tspan><tspan x="12.32" y="0">alida</tspan></text><text class="cls-2" transform="translate(580.56 152.86) scale(0.94 1)"><tspan class="cls-12">D</tspan><tspan class="cls-13" x="16.19" y="0">A</tspan><tspan x="31.02" y="0">C</tspan></text><polyline class="cls-10" points="276.75 146.66 313.79 146.66 336.71 146.66"/><polygon points="350.83 146.66 330.93 154.79 335.65 146.66 330.93 138.53 350.83 146.66"/><text class="cls-2" transform="translate(25.88 149.8) scale(0.94 1)">Clock</text><polyline class="cls-10" points="98.15 143.42 114.59 143.42 121.5 143.42 130.72 143.42"/><polygon points="144.84 143.42 124.94 151.55 129.66 143.42 124.94 135.29 144.84 143.42"/><polyline class="cls-10" points="106.27 143.42 106.27 151.29 106.27 242.44 602.1 239.38 602.1 217.53"/><polygon points="602.1 203.41 610.23 223.31 602.1 218.59 593.97 223.31 602.1 203.41"/><text class="cls-14" transform="translate(280.24 124.59) scale(0.95 1)"><tspan class="cls-15">A</tspan><tspan class="cls-16" x="7.19" y="0">d</tspan><tspan class="cls-17" x="13.96" y="0">r</tspan><tspan x="17.76" y="0">ess poi</tspan><tspan class="cls-18" x="52.01" y="0">n</tspan><tspan class="cls-19" x="58.62" y="0">t</tspan><tspan x="62.51" y="0">er</tspan></text><text class="cls-14" transform="translate(505.17 124.59) scale(0.95 1)"><tspan class="cls-20">S</tspan><tspan x="5.95" y="0">ample</tspan></text></svg>