<svg id="Capa_1" data-name="Capa 1" xmlns="http://www.w3.org/2000/svg" viewBox="0 0 751 351"><defs><style>.cls-1,.cls-2{fill:#fff;}.cls-1,.cls-2,.cls-3,.cls-4{stroke:#000;}.cls-1,.cls-3,.cls-4{stroke-miterlimit:10;}.cls-2{stroke-miterlimit:1;}.cls-2,.cls-4{stroke-dasharray:1 1;}.cls-3,.cls-4{fill:none;}.cls-5{isolation:isolate;font-family:ArialMT, Arial;}.cls-5,.cls-6{font-size:12px;}.cls-6{font-family:MyriadPro-Regular, Myriad Pro;}.cls-7{letter-spacing:-0.07em;}</style></defs><rect class="cls-1" x="0.5" y="0.5" width="750" height="350" rx="26.64"/><circle class="cls-2" cx="169.27" cy="175.5" r="100"/><polyline class="cls-1" points="305.89 174.97 343.47 174.97 405.89 174.97"/><line class="cls-3" x1="405.89" y1="174.97" x2="505.89" y2="174.97"/><line class="cls-3" x1="505.89" y1="174.97" x2="605.89" y2="174.97"/><path class="cls-3" d="M605.89,175h100"/><line class="cls-3" x1="605.89" y1="174.97" x2="705.89" y2="174.97"/><path class="cls-4" d="M705.89,175c-28.8,86.4-75.27,100-100,100-21.07,0-63.33-10.78-100-100.43C465.17,75,426.36,75,405.89,75c-16.29,0-68.38,4.62-100,100"/><line class="cls-3" x1="239.7" y1="104.78" x2="240.2" y2="104.78"/><polyline class="cls-3" points="342.97 104.78 343.47 104.78 343.47 105.28"/><line class="cls-3" x1="343.47" y1="174.47" x2="343.47" y2="174.97"/><circle class="cls-1" cx="268.96" cy="174.97" r="2.5"/><circle class="cls-1" cx="306.68" cy="174.97" r="2.5"/><circle class="cls-1" cx="239.7" cy="104.78" r="2.5"/><circle class="cls-1" cx="343.47" cy="104.78" r="2.5"/><circle class="cls-1" cx="169.64" cy="74.99" r="2.5"/><circle class="cls-1" cx="408.23" cy="74.97" r="2.5"/><text class="cls-5" transform="translate(302.97 189.46)">0</text><text class="cls-5" transform="translate(318.34 189.46)">1</text><text class="cls-5" transform="translate(408.23 189.46)">4</text><path class="cls-4" d="M45,169.32A125,125,0,0,1,169.77,52.47"/><path d="M45.18,167.53l-3.51-2.38-.08.12,2.08,6c.37,2.06.73,4.13,1.1,6.19.53-2,1.07-4,1.6-6.08L49,165.61l-.06-.13Z"/><circle class="cls-1" cx="99.17" cy="104.78" r="2.5"/><circle class="cls-1" cx="70.49" cy="174.94" r="2.5"/><circle class="cls-1" cx="169.39" cy="275.25" r="2.5"/><circle class="cls-1" cx="99.85" cy="245.68" r="2.5"/><circle class="cls-1" cx="240.22" cy="245.68" r="2.5"/><circle class="cls-1" cx="322.52" cy="136.88" r="2.5"/><circle class="cls-1" cx="207.77" cy="82.59" r="2.5"/><circle class="cls-1" cx="133.26" cy="82.59" r="2.5"/><circle class="cls-1" cx="78.11" cy="136.88" r="2.5"/><circle class="cls-1" cx="261.62" cy="213.12" r="2.5"/><circle class="cls-1" cx="207.77" cy="267.35" r="2.5"/><circle class="cls-1" cx="130.76" cy="267.35" r="2.5"/><circle class="cls-1" cx="78.11" cy="213.12" r="2.5"/><circle class="cls-1" cx="373" cy="82.59" r="2.5"/><circle class="cls-1" cx="441.17" cy="82.59" r="2.5"/><circle class="cls-1" cx="467.21" cy="104.78" r="2.5"/><circle class="cls-1" cx="489.12" cy="136.88" r="2.5"/><circle class="cls-1" cx="506.02" cy="175.31" r="2.5"/><circle class="cls-1" cx="524.28" cy="213.12" r="2.5"/><circle class="cls-1" cx="548.19" cy="245.68" r="2.5"/><circle class="cls-1" cx="606.12" cy="275.35" r="2.5"/><circle class="cls-1" cx="576.19" cy="267.35" r="2.5"/><circle class="cls-1" cx="690.06" cy="213.41" r="2.5"/><circle class="cls-1" cx="667.51" cy="245.68" r="2.5"/><circle class="cls-1" cx="638.06" cy="267.35" r="2.5"/><circle class="cls-1" cx="706.27" cy="174.97" r="2.5"/><text class="cls-6" transform="translate(252.74 179.67)">0</text><text class="cls-6" transform="translate(248.28 144.18)">1</text><text class="cls-6" transform="translate(228.7 116.9)">2</text><text class="cls-6" transform="translate(202.32 97.83)">3</text><text class="cls-6" transform="translate(166.24 89.83)">4</text><text class="cls-6" transform="translate(133.26 96.18)">5</text><text class="cls-6" transform="translate(104.62 113.66)">6</text><text class="cls-6" transform="translate(83.77 142.82)">7</text><text class="cls-6" transform="translate(76.45 178.91)">8</text><text class="cls-6" transform="translate(82.06 215.16)">9</text><text class="cls-6" transform="translate(104.62 243.18)">10</text><text class="cls-6" transform="translate(128.26 260.61)">11</text><text class="cls-6" transform="translate(163.43 269.85)">12</text><text class="cls-6" transform="translate(196.96 261.63)">13</text><text class="cls-6" transform="translate(225.72 240.69)">14</text><text class="cls-6" transform="translate(247.34 209.03)">15</text><circle class="cls-1" cx="261.46" cy="136.88" r="2.5"/><text class="cls-5" transform="translate(343.22 189.46)">2</text><text class="cls-5" transform="translate(439.64 189.45)">5</text><text class="cls-5" transform="translate(464.71 189.45)">6</text><text class="cls-5" transform="translate(486.62 189.45)">7</text><text class="cls-5" transform="translate(373 189.46)">3</text><text class="cls-5" transform="translate(503.52 200.43)">8</text><text class="cls-5" transform="translate(521.76 189.46)">9</text><text class="cls-5" transform="translate(545.67 189.46)">10</text><text class="cls-5" transform="translate(576.17 189.46)"><tspan class="cls-7">1</tspan><tspan x="5.78" y="0">1</tspan></text><text class="cls-5" transform="translate(603.6 189.46)">12</text><text class="cls-5" transform="translate(630.78 190.48)">13</text><text class="cls-5" transform="translate(655.87 190.48)">14</text><text class="cls-5" transform="translate(681.76 189.46)">15</text><text class="cls-5" transform="translate(703.75 187.93)">0</text></svg>